<?xml version="1.0" standalone="no"?>
<!DOCTYPE svg PUBLIC "-//W3C//DTD SVG 20010904//EN"
 "http://www.w3.org/TR/2001/REC-SVG-20010904/DTD/svg10.dtd">
<svg version="1.0" xmlns="http://www.w3.org/2000/svg"
 width="3333.000000pt" height="3333.000000pt" viewBox="0 0 3333.000000 3333.000000"
 preserveAspectRatio="xMidYMid meet">

<g transform="translate(0.000000,3333.000000) scale(0.100000,-0.100000)"
fill="#000000" stroke="none">
<path d="M806 33293 c52 -288 192 -501 381 -579 160 -66 311 5 396 185 60 126
39 221 -75 355 l-63 74 -323 1 -323 1 7 -37z"/>
<path d="M11305 33246 c-179 -100 -1181 -731 -1244 -783 -78 -65 -88 -132 -35
-237 51 -102 109 -136 201 -116 65 14 1252 428 1378 480 146 61 452 211 549
269 46 28 100 69 119 91 69 75 83 191 39 320 l-19 55 -419 3 -420 2 -149 -84z"/>
<path d="M15860 33308 c0 -42 50 -209 85 -284 71 -155 186 -281 308 -340 133
-64 239 -53 326 34 75 75 96 129 96 242 0 110 -18 163 -99 293 l-48 77 -334 0
-334 0 0 -22z"/>
<path d="M17470 33311 c0 -38 49 -209 79 -275 63 -139 167 -256 280 -312 47
-24 68 -29 136 -29 60 0 90 5 120 20 55 27 126 103 161 172 25 50 29 69 29
138 0 98 -12 125 -102 229 l-66 76 -318 0 c-305 0 -319 -1 -319 -19z"/>
<path d="M28010 33269 c-177 -95 -1225 -757 -1288 -814 -50 -46 -55 -55 -59
-102 -4 -41 0 -63 21 -110 51 -110 113 -151 205 -133 48 9 1167 395 1326 457
238 94 623 290 704 359 82 70 106 203 62 337 l-23 67 -416 0 -417 0 -115 -61z"/>
<path d="M32526 33303 c53 -243 112 -369 233 -496 106 -113 243 -178 343 -163
72 11 140 57 187 127 l41 61 -1 127 c0 143 -5 161 -84 289 l-50 82 -338 0
-337 0 6 -27z"/>
<path d="M2 32960 c0 -88 1 -92 10 -47 7 31 7 63 0 95 -9 44 -10 40 -10 -48z"/>
<path d="M2042 32900 c-146 -30 -260 -140 -299 -287 -43 -164 45 -346 205
-425 62 -31 74 -33 167 -33 87 1 108 4 157 27 252 117 291 476 71 644 -80 61
-209 93 -301 74z"/>
<path d="M18710 32899 c-120 -24 -221 -104 -277 -218 -25 -49 -28 -68 -28
-151 0 -86 3 -101 32 -162 84 -178 270 -257 464 -198 64 19 81 29 139 88 84
84 113 151 114 262 1 127 -51 237 -145 306 -89 65 -203 93 -299 73z"/>
<path d="M6268 32361 c-83 -27 -142 -93 -177 -199 -72 -212 -8 -402 153 -461
124 -46 446 -114 691 -145 61 -8 409 -36 775 -62 728 -51 725 -51 781 5 37 38
62 127 57 202 -5 68 -32 105 -102 137 -63 30 -1262 396 -1426 436 -239 58
-420 87 -580 91 -80 3 -157 1 -172 -4z"/>
<path d="M22940 32361 c-103 -34 -159 -103 -194 -238 -36 -140 -12 -273 64
-356 38 -41 58 -52 132 -77 129 -43 476 -113 698 -140 161 -19 1365 -101 1413
-96 68 7 104 32 134 95 21 43 27 69 27 127 1 87 -15 116 -90 155 -59 32 -1240
396 -1443 445 -229 56 -420 85 -576 90 -77 2 -151 0 -165 -5z"/>
<path d="M13484 32099 c-170 -28 -343 -136 -483 -301 -131 -153 -200 -308
-229 -515 -13 -98 -14 -133 -4 -233 38 -380 226 -591 528 -591 188 -1 322 80
396 238 84 179 50 412 -76 531 -68 64 -143 93 -245 93 -80 1 -115 -8 -161 -41
-49 -35 -53 -28 -47 59 12 188 127 312 384 416 181 74 238 161 181 275 -38 75
-103 93 -244 69z"/>
<path d="M30134 32095 c-141 -31 -259 -95 -377 -205 -105 -98 -168 -183 -228
-305 -74 -153 -94 -245 -93 -445 1 -186 17 -267 78 -395 38 -81 127 -183 193
-222 101 -59 273 -83 385 -53 171 47 284 183 307 370 18 142 -19 285 -95 369
-105 117 -300 150 -427 71 l-49 -31 4 88 c10 194 108 301 389 422 161 70 211
130 188 228 -5 24 -16 55 -25 68 -35 53 -124 68 -250 40z"/>
<path d="M10700 31449 c-78 -13 -149 -51 -209 -111 -124 -123 -154 -295 -79
-455 31 -66 124 -158 195 -191 51 -24 70 -27 158 -27 92 0 106 3 168 32 194
92 281 307 205 511 -26 71 -122 173 -192 206 -43 20 -164 49 -186 45 -3 -1
-30 -5 -60 -10z"/>
<path d="M27368 31450 c-119 -20 -238 -111 -294 -225 -26 -55 -29 -69 -29
-165 0 -99 2 -110 32 -171 40 -80 120 -159 200 -197 51 -24 70 -27 158 -27 88
0 107 3 158 27 80 38 160 117 200 197 30 61 32 73 32 171 0 93 -3 112 -27 162
-76 163 -254 257 -430 228z"/>
<path d="M9395 30527 c-95 -31 -125 -79 -125 -197 0 -112 78 -1263 96 -1405
47 -387 129 -699 209 -793 87 -101 289 -109 458 -20 117 63 166 160 152 306
-11 126 -73 478 -109 628 -43 174 -402 1356 -426 1404 -34 67 -63 84 -143 87
-40 2 -90 -3 -112 -10z"/>
<path d="M26041 30517 c-30 -12 -62 -33 -73 -47 -39 -54 -39 -93 8 -790 45
-684 57 -808 100 -1040 84 -453 158 -576 354 -588 133 -7 251 32 338 111 65
60 82 103 82 213 0 128 -65 516 -125 742 -55 207 -389 1290 -411 1335 -14 26
-39 56 -57 67 -45 28 -144 27 -216 -3z"/>
<path d="M5305 30467 c-133 -44 -227 -144 -261 -277 -30 -118 2 -242 88 -335
62 -68 113 -99 198 -121 163 -41 345 46 422 204 31 62 33 74 33 167 0 90 -3
106 -29 160 -37 75 -108 145 -183 181 -46 22 -75 28 -143 31 -52 2 -101 -2
-125 -10z"/>
<path d="M21953 30461 c-184 -68 -291 -273 -238 -457 33 -116 105 -198 221
-251 49 -22 72 -27 139 -26 350 2 515 417 260 652 -71 65 -143 94 -245 98 -66
3 -97 -1 -137 -16z"/>
<path d="M8049 30447 c-101 -29 -204 -117 -256 -217 -26 -50 -28 -64 -28 -165
0 -98 3 -116 26 -165 40 -85 108 -154 196 -197 69 -34 82 -37 162 -37 65 0
100 6 144 23 214 84 316 331 222 539 -37 82 -130 171 -212 202 -70 27 -189 35
-254 17z"/>
<path d="M24727 30449 c-101 -24 -213 -112 -260 -205 -53 -105 -58 -217 -15
-331 30 -82 139 -191 223 -223 83 -33 205 -32 290 0 84 32 192 140 226 225 32
83 32 215 0 297 -68 174 -277 281 -464 237z"/>
<path d="M4700 29697 c-20 -7 -77 -37 -127 -66 -143 -82 -157 -85 -383 -81
-351 8 -447 4 -547 -18 -180 -41 -282 -95 -416 -222 -164 -154 -273 -331 -319
-515 -32 -131 -30 -304 6 -440 33 -127 116 -295 199 -405 136 -179 361 -370
542 -460 243 -120 525 -150 771 -80 193 55 353 172 415 305 28 59 31 74 27
133 -6 80 -24 119 -84 179 -83 82 -202 117 -319 93 -33 -7 -114 -33 -180 -57
-153 -58 -246 -67 -353 -34 -129 39 -270 158 -329 278 -25 53 -28 68 -28 164
0 102 1 108 38 182 74 150 179 232 352 278 68 18 124 22 370 29 324 9 363 15
502 81 108 52 201 137 244 225 29 58 31 71 27 131 -3 42 -13 85 -27 110 -29
58 -118 145 -177 174 -58 28 -153 35 -204 16z"/>
<path d="M21360 29696 c-19 -7 -67 -33 -105 -56 -156 -96 -216 -106 -530 -89
-192 10 -234 10 -328 -4 -139 -21 -273 -67 -367 -125 -152 -94 -332 -307 -405
-480 -57 -136 -70 -201 -69 -357 0 -121 3 -153 27 -238 80 -290 283 -555 585
-765 135 -94 286 -159 447 -193 76 -17 312 -16 390 0 173 36 299 97 402 195
96 90 128 154 128 251 -1 88 -23 133 -100 203 -42 39 -72 57 -122 72 -108 33
-168 25 -355 -47 -119 -45 -126 -47 -233 -47 -103 -1 -114 1 -177 31 -315 149
-403 446 -209 703 71 94 156 147 293 181 69 17 131 22 373 29 300 8 328 12
458 60 119 45 240 148 289 248 32 66 32 169 -1 231 -33 62 -111 143 -172 176
-62 33 -163 43 -219 21z"/>
<path d="M14527 29500 c-170 -43 -299 -221 -284 -394 8 -100 41 -170 112 -241
83 -83 147 -109 265 -109 116 1 182 27 261 104 87 85 114 149 114 270 0 88 -3
101 -33 162 -41 84 -120 158 -200 189 -64 24 -176 33 -235 19z"/>
<path d="M31197 29499 c-156 -37 -277 -186 -285 -351 -8 -160 76 -296 226
-366 48 -23 71 -27 147 -27 80 0 97 3 157 32 264 124 303 471 73 644 -90 68
-210 93 -318 68z"/>
<path d="M32 29289 l-32 -10 0 -443 0 -444 62 -84 c81 -110 95 -127 586 -680
437 -493 472 -528 543 -528 81 0 211 100 224 173 13 67 18 55 -377 782 -307
564 -444 789 -606 992 -171 214 -276 278 -400 242z"/>
<path d="M16675 29283 c-118 -43 -230 -135 -275 -228 -37 -75 -35 -179 4 -259
40 -81 201 -322 328 -491 94 -125 833 -970 976 -1117 88 -90 142 -107 225 -68
128 60 173 145 134 255 -15 43 -609 1138 -678 1252 -198 323 -421 599 -527
649 -52 24 -129 27 -187 7z"/>
<path d="M33266 29247 c-138 -74 -231 -202 -231 -316 1 -77 39 -156 178 -364
l112 -168 3 221 c1 121 1 319 0 439 l-3 220 -59 -32z"/>
<path d="M13905 28722 c-27 -10 -81 -37 -119 -60 -125 -76 -162 -85 -326 -86
-80 -1 -221 1 -315 3 -190 5 -283 -8 -425 -58 -112 -39 -180 -83 -287 -185
-118 -112 -181 -195 -243 -321 -74 -148 -93 -230 -93 -400 0 -164 24 -276 91
-418 151 -323 504 -639 832 -745 403 -131 880 0 1028 283 22 41 27 64 27 125
0 64 -4 82 -27 121 -62 106 -173 171 -291 171 -85 1 -126 -9 -267 -64 -90 -35
-119 -42 -201 -46 -120 -6 -183 12 -286 81 -85 56 -149 127 -189 206 -27 51
-29 65 -29 166 0 106 1 113 36 185 52 108 122 181 223 230 123 60 200 72 491
75 313 4 387 18 546 101 92 49 189 150 219 231 41 108 15 207 -83 310 -91 96
-210 133 -312 95z"/>
<path d="M30584 28726 c-23 -7 -81 -36 -130 -64 -49 -28 -109 -58 -134 -67
-65 -23 -209 -29 -410 -17 -201 12 -309 4 -447 -33 -171 -45 -309 -135 -440
-284 -190 -218 -271 -431 -260 -685 12 -286 127 -518 376 -766 191 -189 340
-287 541 -354 412 -137 890 -6 1037 285 21 42 27 68 27 119 0 81 -27 136 -96
202 -102 97 -239 117 -403 59 -228 -82 -233 -83 -336 -79 -87 3 -103 7 -171
41 -109 53 -207 148 -255 244 -34 68 -37 82 -37 161 -1 102 17 162 74 251 99
154 220 216 469 242 58 6 151 8 206 4 113 -7 284 7 378 30 91 24 216 87 276
141 171 154 182 325 31 475 -93 91 -202 126 -296 95z"/>
<path d="M7655 27754 c-83 -31 -135 -111 -138 -215 -1 -30 2 -149 7 -266 l8
-212 -98 36 c-283 102 -412 143 -449 143 -92 -1 -180 -75 -209 -179 -26 -93
-18 -160 26 -223 35 -50 97 -75 352 -143 138 -36 251 -66 252 -68 1 -1 -77
-94 -173 -207 -95 -113 -181 -218 -190 -234 -21 -41 -28 -135 -13 -181 30 -92
148 -175 248 -175 109 0 132 22 337 315 80 116 149 211 153 212 4 1 66 -88
137 -200 72 -111 143 -217 159 -235 87 -100 233 -105 340 -11 87 77 113 175
71 269 -11 24 -93 134 -182 245 -89 110 -160 201 -159 203 2 1 110 32 240 67
130 36 249 71 264 79 37 19 88 75 101 109 14 37 13 153 -2 194 -22 60 -73 119
-122 143 -81 39 -139 24 -588 -149 l-29 -11 4 267 3 268 -27 55 c-29 58 -70
93 -129 110 -49 14 -147 11 -194 -6z"/>
<path d="M24338 27760 c-46 -14 -96 -49 -117 -83 -40 -66 -44 -105 -31 -365 6
-134 10 -245 8 -246 -1 -2 -109 34 -238 81 -260 92 -299 101 -364 83 -152 -42
-221 -292 -113 -408 38 -41 92 -61 338 -127 133 -35 243 -66 245 -68 3 -3 -72
-96 -167 -208 -176 -210 -201 -247 -213 -312 -22 -121 98 -262 236 -275 70 -7
110 4 154 42 22 19 111 136 198 260 87 124 161 224 165 222 4 -3 67 -97 140
-210 82 -127 150 -221 177 -245 80 -70 172 -77 270 -21 53 30 106 87 124 134
16 43 12 127 -9 171 -11 22 -91 130 -180 239 -88 110 -159 201 -157 204 2 2
107 32 233 67 265 73 268 74 312 111 126 105 74 359 -85 420 -67 25 -117 15
-368 -79 l-226 -84 0 261 c0 153 -4 277 -11 299 -15 54 -71 112 -126 131 -49
17 -149 20 -195 6z"/>
<path d="M10810 27189 c-201 -39 -349 -252 -312 -451 25 -133 110 -244 231
-302 60 -28 75 -31 161 -31 85 0 102 3 161 31 76 36 158 114 193 182 121 239
-20 522 -284 572 -60 11 -87 11 -150 -1z"/>
<path d="M27465 27187 c-331 -87 -413 -501 -140 -709 104 -80 248 -98 380 -48
72 28 179 129 213 202 48 104 47 240 -4 345 -34 71 -136 165 -209 192 -71 27
-175 34 -240 18z"/>
<path d="M2143 26399 c-142 -27 -262 -135 -304 -270 -83 -267 130 -537 407
-516 95 7 167 40 240 109 72 68 101 118 120 209 28 133 -6 249 -102 349 -64
67 -129 103 -218 119 -67 12 -83 12 -143 0z"/>
<path d="M18800 26396 c-118 -25 -226 -113 -278 -224 -24 -50 -27 -69 -27
-162 0 -99 2 -110 32 -171 40 -80 120 -159 200 -197 51 -24 70 -27 153 -27 74
1 107 6 151 23 81 32 170 117 211 200 31 62 33 73 33 172 0 93 -3 112 -27 162
-54 116 -169 204 -297 228 -65 12 -80 12 -151 -4z"/>
<path d="M11547 24941 c-325 -107 -353 -557 -44 -702 301 -141 623 149 517
466 -29 87 -106 172 -197 217 -83 41 -188 48 -276 19z"/>
<path d="M28228 24946 c-109 -31 -209 -121 -250 -224 -31 -79 -31 -203 1 -284
32 -83 97 -150 189 -195 71 -35 82 -38 161 -37 104 1 178 26 244 84 165 145
181 386 36 545 -72 78 -156 117 -257 121 -44 2 -97 -2 -124 -10z"/>
<path d="M7379 24372 c-143 -47 -248 -169 -280 -322 -6 -31 -9 -95 -6 -145 11
-206 111 -334 287 -371 102 -21 178 -8 247 43 l32 23 6 -33 c10 -50 -13 -155
-48 -220 -54 -102 -170 -187 -350 -258 -75 -30 -143 -76 -167 -114 -37 -60
-21 -153 35 -205 24 -23 34 -25 118 -25 346 1 705 338 788 740 21 102 25 305
8 401 -41 236 -163 407 -337 475 -80 31 -253 37 -333 11z"/>
<path d="M12343 24365 c-64 -32 -133 -107 -170 -183 -22 -46 -27 -71 -27 -127
0 -82 19 -125 96 -218 120 -145 142 -211 168 -507 19 -218 48 -347 110 -484
64 -143 177 -269 333 -370 323 -211 648 -237 972 -76 126 62 208 124 323 244
200 209 346 475 397 723 21 100 21 292 0 399 -40 208 -123 373 -247 490 -203
192 -428 166 -528 -60 -30 -67 -36 -139 -16 -215 17 -66 33 -101 110 -244 100
-183 102 -311 8 -492 -123 -233 -353 -310 -587 -196 -172 85 -267 240 -310
511 -48 305 -59 359 -82 424 -57 163 -167 304 -285 366 -51 27 -76 34 -138 38
-66 3 -81 0 -127 -23z"/>
<path d="M24048 24371 c-77 -25 -117 -52 -181 -121 -63 -67 -94 -138 -106
-240 -10 -83 1 -189 29 -262 73 -195 325 -285 495 -177 l48 30 -5 -88 c-9
-171 -95 -284 -285 -373 -199 -93 -235 -114 -266 -153 -26 -31 -31 -46 -30
-87 1 -63 29 -118 73 -142 90 -48 321 7 477 113 68 47 187 163 244 240 68 92
124 208 156 325 25 90 27 114 27 269 0 142 -4 183 -22 250 -45 163 -142 309
-249 372 -109 63 -284 83 -405 44z"/>
<path d="M29015 24367 c-60 -29 -133 -105 -171 -178 -24 -46 -29 -66 -29 -134
0 -95 9 -114 103 -229 108 -133 130 -202 157 -476 26 -280 54 -392 136 -550
160 -311 595 -540 946 -500 246 28 444 128 638 324 271 274 435 628 435 941 0
408 -225 773 -507 820 -146 24 -298 -120 -311 -294 -6 -91 20 -175 94 -306 83
-145 98 -192 98 -300 -1 -72 -6 -103 -27 -157 -124 -321 -411 -423 -688 -246
-68 44 -115 100 -163 195 -48 97 -71 185 -101 392 -45 313 -102 458 -230 587
-90 91 -162 128 -260 132 -57 2 -79 -1 -120 -21z"/>
<path d="M992 23865 c-73 -21 -108 -40 -156 -88 -77 -77 -90 -174 -83 -620 l4
-332 77 -650 c42 -357 83 -671 92 -697 25 -76 92 -118 189 -118 99 0 163 40
190 118 8 25 50 343 92 706 l77 661 0 335 c1 341 -5 413 -41 524 -20 63 -83
127 -149 150 -68 25 -223 30 -292 11z"/>
<path d="M17660 23865 c-113 -32 -188 -97 -215 -187 -27 -89 -40 -415 -27
-667 13 -244 143 -1409 168 -1509 26 -99 87 -142 201 -142 101 0 162 43 187
131 17 59 149 1201 167 1444 16 213 6 562 -20 684 -28 130 -58 176 -143 220
-60 31 -77 34 -165 37 -67 3 -115 -1 -153 -11z"/>
<path d="M16445 23160 c-109 -35 -215 -139 -252 -245 -26 -75 -23 -204 6 -278
29 -75 123 -177 194 -212 159 -77 346 -41 466 91 60 65 88 122 103 204 50 289
-233 531 -517 440z"/>
<path d="M33129 23166 c-103 -28 -209 -120 -257 -224 -36 -80 -42 -203 -13
-285 62 -177 242 -293 419 -271 l52 6 0 388 0 388 -22 6 c-37 9 -129 6 -179
-8z"/>
<path d="M0 22783 l0 -385 28 7 c82 20 189 117 236 215 28 59 31 74 31 165 0
87 -4 107 -27 157 -45 96 -134 180 -227 213 l-41 14 0 -386z"/>
<path d="M4442 22120 c-289 -30 -505 -127 -700 -314 -271 -259 -354 -632 -177
-795 71 -66 185 -88 291 -56 113 33 188 111 281 287 77 146 162 228 281 269
73 26 218 35 294 20 221 -46 352 -235 335 -482 -11 -164 -106 -300 -363 -519
-233 -199 -328 -328 -368 -500 -58 -245 51 -413 276 -427 122 -8 188 13 253
81 44 45 56 66 89 161 21 61 47 126 59 145 39 64 121 142 272 259 183 141 274
231 353 349 101 151 142 298 142 508 0 288 -79 499 -254 682 -207 216 -476
321 -856 336 -69 2 -162 1 -208 -4z"/>
<path d="M21150 22123 c-240 -17 -456 -91 -620 -214 -231 -171 -376 -405 -388
-625 -8 -155 35 -252 139 -309 49 -27 63 -30 144 -30 78 0 97 4 147 28 79 39
151 121 228 262 100 182 190 259 337 290 303 65 535 -82 575 -363 30 -217 -64
-380 -362 -632 -181 -153 -252 -235 -318 -366 -41 -81 -62 -167 -62 -251 0
-190 103 -299 292 -311 181 -11 276 55 334 231 61 186 98 231 342 421 281 219
402 376 463 601 19 68 22 107 22 255 0 158 -2 185 -26 275 -98 369 -387 624
-806 710 -127 26 -308 38 -441 28z"/>
<path d="M9108 22052 c-99 -52 -369 -276 -563 -468 -172 -170 -956 -1048 -987
-1106 -16 -27 -28 -61 -28 -74 0 -63 66 -159 136 -200 49 -29 89 -29 154 -1
49 20 1068 736 1220 856 259 205 471 416 525 525 54 108 23 228 -89 352 -77
85 -157 126 -256 132 -60 3 -82 0 -112 -16z"/>
<path d="M25775 22052 c-83 -39 -338 -250 -547 -450 -126 -122 -979 -1074
-1005 -1123 -41 -75 -26 -144 47 -222 75 -82 130 -94 221 -49 75 36 1074 737
1242 871 73 58 207 179 298 270 138 138 171 177 199 234 29 60 32 74 27 126
-10 118 -122 268 -243 327 -77 37 -179 44 -239 16z"/>
<path d="M13115 21136 c-27 -7 -68 -21 -90 -31 -59 -28 -151 -125 -183 -192
-24 -52 -27 -70 -27 -163 0 -99 2 -110 33 -172 41 -83 130 -168 211 -200 43
-17 76 -22 146 -22 116 0 179 24 263 100 87 79 125 157 130 274 7 136 -27 220
-127 313 -96 90 -228 124 -356 93z"/>
<path d="M29790 21140 c-77 -16 -145 -57 -208 -125 -64 -68 -94 -131 -106
-220 -9 -64 15 -183 48 -239 35 -60 127 -143 193 -174 50 -23 71 -27 153 -27
83 0 103 4 154 28 116 54 193 138 228 249 62 200 -42 414 -238 487 -64 24
-163 33 -224 21z"/>
<path d="M1387 20639 c-102 -24 -214 -114 -261 -211 -81 -165 -47 -339 90
-468 101 -94 227 -128 354 -96 122 31 221 113 274 226 28 59 31 74 31 160 -1
116 -25 185 -91 258 -103 115 -253 165 -397 131z"/>
<path d="M18041 20634 c-232 -62 -356 -328 -254 -546 95 -204 333 -292 531
-197 61 29 162 131 189 190 144 309 -137 642 -466 553z"/>
<path d="M4540 19330 c-187 -32 -325 -215 -307 -408 14 -147 121 -281 258
-323 288 -87 558 164 485 451 -38 148 -149 251 -301 279 -64 12 -70 12 -135 1z"/>
<path d="M21200 19329 c-112 -22 -217 -107 -268 -217 -24 -50 -27 -69 -27
-157 0 -88 3 -107 27 -157 34 -74 107 -146 183 -184 54 -26 70 -29 160 -29 88
0 107 3 158 27 69 33 155 116 185 180 106 228 -30 491 -278 538 -60 11 -77 11
-140 -1z"/>
<path d="M14480 18894 c-141 -37 -275 -137 -327 -242 -24 -50 -28 -69 -28
-147 0 -78 4 -98 28 -150 33 -70 56 -98 116 -136 l44 -28 -62 -30 c-157 -74
-330 -37 -496 108 -173 151 -234 183 -305 162 -40 -12 -98 -63 -111 -99 -15
-40 -10 -67 27 -142 67 -134 215 -265 374 -330 309 -127 599 -114 890 41 250
134 390 325 390 533 -1 309 -263 533 -540 460z"/>
<path d="M31152 18896 c-84 -21 -197 -82 -255 -139 -93 -91 -128 -198 -103
-317 23 -110 74 -188 148 -226 38 -20 26 -35 -50 -65 -42 -17 -78 -22 -137
-22 -136 -1 -226 43 -382 184 -137 123 -205 148 -283 106 -88 -46 -110 -118
-66 -212 105 -224 373 -389 694 -426 216 -26 463 40 667 176 237 158 347 383
290 595 -69 260 -286 403 -523 346z"/>
<path d="M9153 18566 c-68 -22 -127 -61 -181 -121 -177 -194 -109 -509 136
-623 50 -24 69 -27 162 -27 92 0 112 3 160 26 85 40 154 108 197 196 35 71 37
81 37 167 0 70 -5 104 -23 149 -32 80 -114 168 -198 209 -57 28 -78 33 -157
35 -57 2 -107 -2 -133 -11z"/>
<path d="M25801 18560 c-100 -37 -180 -112 -229 -218 -24 -50 -27 -69 -27
-157 0 -88 3 -107 27 -158 35 -75 123 -166 195 -203 54 -27 66 -29 168 -29
101 0 115 2 168 29 75 36 157 118 193 192 27 54 29 68 29 169 0 104 -2 114
-33 177 -39 79 -111 149 -192 187 -75 35 -219 40 -299 11z"/>
<path d="M184 18075 c-38 -7 -96 -20 -127 -29 l-57 -17 0 -360 c0 -198 3 -359
8 -357 178 91 291 96 448 18 182 -89 271 -248 330 -590 37 -212 60 -294 110
-397 98 -200 280 -335 429 -320 105 11 198 85 257 204 27 55 32 77 31 132 0
82 -17 122 -85 201 -146 171 -166 224 -203 520 -31 246 -60 353 -143 514 -78
152 -240 297 -437 391 -191 91 -384 122 -561 90z"/>
<path d="M16890 18083 c-357 -41 -697 -318 -909 -741 -91 -182 -133 -349 -133
-527 0 -273 98 -533 262 -695 200 -198 439 -185 538 28 19 41 28 78 30 132 5
98 -18 167 -103 308 -84 139 -105 199 -105 301 0 95 24 181 75 266 122 203
323 277 533 197 212 -81 313 -248 377 -627 14 -82 35 -184 47 -225 87 -318
341 -534 547 -465 68 22 148 97 192 177 31 58 34 70 34 148 0 101 -6 113 -105
230 -116 137 -145 213 -174 461 -22 181 -41 281 -71 368 -65 193 -158 327
-301 435 -233 175 -494 256 -734 229z"/>
<path d="M33262 17995 c-232 -108 -455 -341 -605 -633 -154 -299 -184 -588
-91 -882 89 -285 286 -487 485 -498 86 -5 126 9 188 64 77 70 91 107 91 251 0
134 -9 165 -74 268 -128 199 -152 330 -90 494 27 71 103 191 140 220 l24 19 0
361 c0 199 -3 361 -7 361 -5 0 -32 -11 -61 -25z"/>
<path d="M11915 16851 c-169 -46 -489 -195 -725 -337 -294 -177 -1078 -677
-1123 -715 -88 -75 -96 -126 -37 -246 43 -88 88 -117 167 -111 66 5 1253 414
1453 500 186 81 520 254 581 302 123 96 141 241 54 422 -37 77 -102 151 -155
179 -50 26 -134 28 -215 6z"/>
<path d="M28585 16851 c-151 -40 -435 -167 -648 -289 -129 -75 -1086 -676
-1174 -738 -102 -73 -123 -131 -84 -234 42 -111 99 -155 190 -148 63 6 1214
402 1425 491 178 75 480 227 569 287 89 60 123 108 137 196 20 120 -45 291
-145 382 -81 74 -143 86 -270 53z"/>
<path d="M2 16295 c0 -81 1 -86 10 -48 7 28 7 57 0 90 -9 46 -10 44 -10 -42z"/>
<path d="M2012 16225 c-29 -8 -66 -22 -84 -31 -54 -28 -127 -111 -161 -182
-94 -201 16 -444 232 -512 100 -32 198 -23 296 28 56 28 131 111 163 180 23
49 27 70 27 152 -1 83 -4 103 -29 158 -75 163 -273 255 -444 207z"/>
<path d="M18668 16221 c-31 -10 -72 -28 -91 -40 -52 -32 -116 -106 -145 -169
-23 -49 -27 -70 -27 -152 0 -87 3 -101 32 -161 39 -80 111 -150 191 -187 49
-23 70 -27 147 -27 160 1 270 68 339 205 41 84 52 156 36 236 -27 130 -91 213
-206 270 -93 46 -186 55 -276 25z"/>
<path d="M6306 15699 c-150 -22 -241 -165 -241 -374 0 -77 4 -99 28 -149 40
-87 81 -120 190 -155 111 -35 332 -83 547 -117 105 -16 377 -40 840 -73 708
-51 749 -52 804 -16 40 27 69 99 73 184 5 93 -11 124 -83 163 -56 30 -1267
405 -1449 448 -307 73 -585 108 -709 89z"/>
<path d="M22980 15700 c-72 -9 -109 -29 -158 -85 -61 -70 -87 -154 -87 -285 0
-88 4 -113 23 -155 56 -123 117 -150 487 -224 309 -62 364 -68 1095 -120 711
-52 746 -52 799 -14 54 39 93 165 76 243 -11 52 -59 96 -133 124 -100 38
-1219 380 -1357 415 -310 77 -614 119 -745 101z"/>
<path d="M13435 15421 c-99 -27 -139 -46 -231 -106 -197 -131 -351 -349 -409
-580 -94 -368 21 -758 261 -887 142 -76 344 -77 473 -1 152 89 233 282 203
478 -33 210 -162 327 -362 329 -78 1 -90 -2 -142 -31 -32 -18 -61 -33 -64 -33
-4 0 -4 36 -1 81 13 194 125 311 411 429 97 40 161 98 171 153 10 52 -11 119
-47 154 -27 25 -37 28 -111 30 -56 2 -104 -3 -152 -16z"/>
<path d="M30101 15420 c-146 -39 -257 -106 -382 -233 -129 -131 -221 -294
-266 -475 -27 -104 -24 -380 5 -487 76 -278 259 -436 507 -435 158 1 281 63
365 184 85 124 98 351 28 489 -87 174 -330 250 -480 151 -21 -13 -40 -24 -44
-24 -4 0 -5 38 -2 84 9 183 114 301 354 402 137 57 191 95 216 150 31 70 6
157 -55 194 -42 26 -146 26 -246 0z"/>
<path d="M10677 14779 c-135 -32 -256 -149 -292 -283 -51 -187 44 -384 224
-470 59 -28 75 -31 156 -30 121 1 185 26 270 106 74 68 110 134 127 228 47
271 -213 513 -485 449z"/>
<path d="M27330 14775 c-30 -9 -73 -26 -95 -40 -58 -34 -132 -117 -163 -183
-24 -50 -27 -69 -27 -162 0 -94 3 -111 28 -161 101 -206 326 -292 523 -200 86
40 157 109 197 190 30 62 32 72 32 176 0 100 -3 115 -28 167 -38 77 -137 169
-214 198 -76 28 -182 35 -253 15z"/>
<path d="M9431 13869 c-58 -11 -110 -39 -135 -72 -15 -20 -21 -47 -24 -109 -4
-93 69 -1220 94 -1428 41 -357 119 -664 195 -777 33 -47 107 -88 180 -98 57
-8 170 8 243 36 101 37 187 135 202 227 13 84 -51 498 -121 772 -46 183 -390
1312 -414 1358 -25 49 -60 80 -102 92 -39 11 -57 11 -118 -1z"/>
<path d="M26080 13864 c-91 -25 -126 -58 -141 -137 -9 -48 71 -1295 96 -1492
35 -273 92 -530 147 -663 59 -142 125 -187 273 -187 157 1 287 60 360 164 30
43 30 44 30 174 -1 147 -29 336 -92 607 -32 139 -394 1354 -427 1433 -21 51
-64 96 -104 107 -48 13 -75 12 -142 -6z"/>
<path d="M5347 13810 c-119 -20 -243 -123 -288 -237 -31 -79 -31 -195 0 -275
31 -80 105 -159 189 -200 62 -31 74 -33 167 -33 89 0 106 3 158 29 74 36 147
109 184 183 25 52 28 68 28 158 0 87 -3 107 -27 157 -52 112 -159 195 -282
217 -65 12 -61 12 -129 1z"/>
<path d="M22010 13809 c-131 -22 -251 -130 -292 -262 -42 -141 -5 -279 103
-382 86 -82 132 -100 254 -100 89 0 107 3 162 29 119 55 207 179 219 308 24
247 -197 448 -446 407z"/>
<path d="M8033 13775 c-100 -31 -190 -112 -241 -215 -24 -50 -27 -66 -27 -165
0 -101 2 -115 29 -168 36 -75 118 -157 192 -193 54 -26 69 -29 164 -29 94 0
111 3 166 28 79 37 164 122 200 202 37 80 44 198 19 280 -38 119 -137 219
-254 255 -73 23 -184 25 -248 5z"/>
<path d="M24703 13776 c-189 -61 -309 -256 -274 -443 24 -132 111 -245 231
-302 48 -23 68 -26 160 -26 93 0 112 3 162 27 176 82 273 281 224 463 -19 73
-42 112 -103 176 -76 80 -150 112 -268 116 -57 2 -105 -2 -132 -11z"/>
<path d="M4638 13000 c-40 -22 -107 -57 -148 -78 l-75 -37 -355 0 c-351 -1
-356 -1 -450 -27 -175 -48 -280 -108 -405 -232 -142 -141 -253 -324 -296 -491
-25 -94 -30 -283 -10 -383 55 -281 227 -541 507 -766 172 -137 339 -220 523
-258 130 -27 366 -21 486 11 182 50 352 168 420 292 38 71 46 167 17 232 -28
64 -94 132 -161 164 -50 25 -66 28 -156 27 -95 0 -106 -3 -236 -52 -155 -58
-233 -71 -324 -52 -140 28 -300 151 -365 280 -45 88 -53 203 -20 299 42 125
128 230 231 282 123 62 177 70 499 79 308 8 348 14 470 62 92 37 142 69 206
133 78 77 106 131 112 216 4 57 1 75 -21 123 -34 75 -106 149 -180 186 -49 24
-73 30 -128 30 -60 0 -76 -4 -141 -40z"/>
<path d="M21351 13025 c-19 -9 -73 -37 -120 -64 -142 -82 -160 -85 -490 -77
-239 6 -301 5 -376 -9 -230 -40 -371 -117 -529 -286 -129 -140 -214 -286 -258
-447 -32 -114 -31 -324 1 -445 60 -232 172 -411 384 -613 169 -161 346 -272
525 -328 125 -39 210 -49 372 -43 117 4 162 10 234 31 200 60 342 162 412 297
23 44 28 67 29 124 0 59 -5 78 -30 124 -32 57 -83 104 -155 142 -39 21 -59 24
-145 23 -94 0 -107 -3 -224 -47 -68 -26 -154 -53 -191 -59 -139 -24 -278 25
-404 143 -159 148 -193 320 -100 507 47 96 128 179 215 220 117 56 167 63 484
72 247 6 302 11 370 29 180 47 328 150 391 271 38 74 40 172 5 244 -31 64
-115 146 -182 179 -62 31 -161 36 -218 12z"/>
<path d="M14503 12826 c-59 -19 -103 -49 -157 -106 -207 -221 -88 -575 210
-629 144 -26 293 38 377 161 141 208 43 490 -197 571 -59 20 -173 21 -233 3z"/>
<path d="M31163 12822 c-75 -27 -130 -69 -180 -136 -57 -77 -77 -147 -71 -247
13 -231 223 -392 449 -344 89 18 142 49 207 120 68 74 95 145 95 250 -1 151
-76 271 -210 337 -84 41 -207 50 -290 20z"/>
<path d="M22 12620 l-22 -9 0 -445 0 -444 71 -93 c96 -126 105 -137 567 -659
222 -250 425 -472 451 -493 27 -21 65 -40 84 -44 77 -12 228 94 243 171 4 24
0 54 -11 88 -17 54 -611 1154 -698 1293 -201 324 -405 571 -512 621 -52 25
-130 31 -173 14z"/>
<path d="M16663 12611 c-167 -60 -293 -209 -293 -347 0 -77 43 -167 165 -349
176 -261 321 -439 763 -936 489 -551 497 -558 582 -544 52 9 153 76 181 121
26 43 27 93 1 160 -19 50 -565 1062 -655 1214 -124 209 -300 451 -413 570
-121 126 -207 155 -331 111z"/>
<path d="M33254 12574 c-135 -81 -217 -196 -218 -310 -1 -50 5 -72 37 -137 34
-69 210 -342 243 -377 12 -12 14 50 14 423 0 240 -4 437 -8 437 -5 0 -35 -16
-68 -36z"/>
<path d="M13905 12058 c-16 -6 -70 -35 -120 -64 -139 -81 -176 -89 -390 -84
-332 8 -444 5 -530 -14 -193 -44 -321 -112 -448 -238 -145 -143 -240 -297
-293 -473 -24 -79 -27 -108 -28 -230 0 -116 3 -155 23 -230 59 -226 152 -377
355 -581 255 -254 476 -371 765 -404 184 -22 412 17 561 96 169 89 280 232
280 362 0 98 -81 210 -190 261 -79 37 -205 36 -307 -2 -199 -74 -221 -80 -295
-85 -178 -11 -376 108 -469 280 -29 55 -34 74 -37 155 -5 109 12 176 69 264
53 82 111 134 193 174 114 56 177 66 501 75 324 9 369 17 515 88 102 50 208
155 239 235 25 69 26 115 5 187 -22 74 -144 198 -218 223 -55 19 -135 21 -181
5z"/>
<path d="M30567 12055 c-21 -8 -65 -30 -97 -50 -162 -98 -232 -111 -532 -94
-282 17 -447 -5 -614 -81 -213 -96 -434 -352 -518 -597 -38 -112 -49 -198 -43
-329 12 -272 138 -528 376 -764 354 -351 759 -480 1163 -369 232 64 419 229
443 394 12 77 -17 149 -89 221 -53 52 -73 65 -130 83 -113 35 -177 27 -371
-47 -115 -44 -125 -46 -226 -47 -105 0 -106 0 -194 44 -156 77 -260 204 -287
349 -31 168 78 380 241 466 128 67 189 77 516 86 331 9 385 18 527 92 212 110
302 292 225 450 -31 63 -113 145 -178 178 -56 29 -158 36 -212 15z"/>
<path d="M7706 11099 c-72 -12 -135 -55 -163 -112 -29 -58 -31 -96 -19 -379 5
-115 5 -208 1 -208 -4 0 -115 38 -247 85 -252 90 -304 100 -371 71 -74 -31
-131 -118 -143 -217 -12 -107 38 -196 134 -237 26 -10 149 -46 274 -78 126
-33 228 -62 228 -66 0 -4 -77 -99 -171 -210 -94 -112 -180 -221 -190 -243 -42
-90 -15 -203 63 -269 113 -97 247 -100 330 -8 18 20 100 133 182 250 82 116
152 212 155 212 3 0 69 -97 146 -216 150 -231 185 -269 265 -290 128 -33 278
61 310 195 22 93 4 129 -190 370 -101 126 -165 213 -157 216 6 3 113 32 237
66 124 33 241 69 260 79 73 38 110 104 110 198 0 85 -25 148 -81 203 -84 85
-144 81 -440 -30 -118 -45 -219 -81 -224 -81 -4 0 -5 107 -1 238 8 265 2 317
-44 380 -48 67 -147 99 -254 81z"/>
<path d="M24400 11103 c-125 -16 -196 -78 -215 -190 -3 -23 -1 -146 5 -273 7
-127 10 -234 6 -237 -3 -3 -110 32 -238 78 -270 96 -324 105 -398 67 -51 -26
-103 -96 -121 -161 -6 -23 -9 -70 -7 -104 5 -78 42 -136 108 -170 25 -13 151
-50 280 -84 129 -33 238 -64 242 -68 4 -3 -72 -101 -169 -216 -97 -116 -183
-226 -191 -245 -23 -53 -20 -137 6 -186 60 -115 213 -183 316 -140 53 22 95
72 242 283 76 109 145 208 154 220 16 21 20 17 159 -198 144 -220 177 -260
241 -287 45 -19 126 -18 173 1 50 21 127 94 148 142 24 51 24 129 0 180 -10
22 -91 130 -179 240 -88 110 -157 203 -154 207 4 3 113 35 242 70 259 69 308
92 344 163 16 30 21 59 21 116 0 102 -37 178 -110 227 -47 32 -54 34 -120 30
-57 -4 -110 -19 -288 -86 -120 -45 -220 -82 -223 -82 -2 0 -4 121 -4 269 l0
269 -28 53 c-23 45 -37 58 -82 81 -54 26 -111 37 -160 31z"/>
<path d="M10769 10512 c-109 -37 -190 -110 -243 -222 -28 -58 -31 -74 -30
-155 1 -121 26 -185 106 -270 98 -105 224 -150 351 -125 92 18 145 47 218 119
87 87 113 149 113 276 0 126 -26 189 -113 276 -49 49 -81 72 -126 89 -82 31
-201 36 -276 12z"/>
<path d="M27449 10517 c-104 -30 -208 -121 -257 -225 -24 -50 -27 -69 -27
-157 0 -91 3 -106 31 -166 121 -256 441 -313 640 -115 196 197 140 520 -111
638 -78 36 -199 47 -276 25z"/>
<path d="M2089 9718 c-279 -98 -358 -448 -149 -658 154 -153 383 -156 546 -8
165 151 172 411 15 568 -108 108 -272 147 -412 98z"/>
<path d="M18779 9727 c-101 -29 -204 -117 -256 -217 -26 -50 -28 -64 -28 -165
0 -99 3 -116 27 -168 33 -71 125 -164 192 -195 216 -101 467 7 547 236 30 83
23 204 -16 290 -37 82 -130 171 -212 202 -70 27 -189 35 -254 17z"/>
<path d="M11555 8276 c-143 -46 -238 -156 -265 -303 -8 -49 -8 -76 4 -131 18
-87 36 -122 94 -185 114 -121 291 -154 441 -84 63 29 147 115 179 184 24 51
27 70 27 158 0 88 -3 107 -27 157 -34 74 -107 146 -183 184 -50 24 -74 29
-145 31 -50 2 -102 -3 -125 -11z"/>
<path d="M28203 8271 c-259 -96 -336 -428 -143 -622 188 -189 498 -134 613
109 29 60 32 76 32 157 -1 77 -5 99 -29 152 -34 74 -122 163 -193 195 -70 31
-209 35 -280 9z"/>
<path d="M7424 7716 c-167 -38 -289 -164 -325 -336 -16 -79 -6 -222 21 -293
29 -76 112 -166 182 -198 44 -20 69 -24 154 -24 96 0 103 1 152 32 l52 32 6
-24 c8 -33 -11 -146 -34 -197 -51 -114 -150 -196 -327 -270 -172 -72 -225
-120 -225 -208 0 -54 25 -106 63 -134 24 -17 42 -21 106 -20 198 4 372 91 542
272 186 199 269 411 269 690 0 344 -131 582 -364 662 -78 26 -195 33 -272 16z"/>
<path d="M12389 7717 c-55 -16 -92 -41 -148 -102 -63 -69 -96 -145 -95 -225 0
-81 22 -133 93 -217 75 -90 118 -166 135 -242 8 -36 25 -158 36 -271 27 -250
54 -360 125 -507 47 -96 67 -124 137 -196 133 -135 320 -246 503 -299 69 -20
102 -23 235 -22 139 0 164 3 245 28 266 81 483 254 672 536 161 240 234 459
234 700 1 381 -188 719 -450 805 -160 53 -320 -55 -363 -243 -22 -102 -1 -172
126 -411 53 -99 70 -171 63 -266 -13 -170 -129 -345 -275 -417 -127 -63 -294
-47 -430 42 -155 100 -226 257 -276 607 -37 262 -81 388 -180 519 -107 143
-262 216 -387 181z"/>
<path d="M24110 7720 c-240 -43 -379 -248 -349 -515 24 -221 173 -354 383
-343 69 3 100 14 160 53 l28 19 -3 -85 c-3 -71 -9 -95 -36 -150 -58 -118 -154
-191 -365 -278 -138 -58 -199 -134 -179 -224 21 -91 66 -123 171 -121 185 4
353 84 515 248 213 214 307 463 292 770 -17 345 -169 567 -424 621 -74 16
-123 17 -193 5z"/>
<path d="M29052 7715 c-121 -37 -231 -178 -240 -305 -6 -84 17 -142 93 -235
122 -150 143 -213 170 -497 20 -211 31 -273 67 -383 50 -152 102 -238 203
-341 136 -138 294 -234 480 -290 80 -25 106 -28 240 -28 127 -1 163 3 235 22
302 83 561 304 762 654 61 104 101 202 135 325 25 89 28 114 28 263 -1 184
-17 274 -76 416 -115 277 -354 450 -537 390 -106 -35 -192 -158 -200 -284 -6
-91 18 -170 94 -303 123 -217 133 -335 44 -516 -54 -109 -131 -192 -217 -235
-204 -100 -483 2 -596 220 -59 115 -84 207 -117 444 -24 167 -40 235 -76 327
-68 173 -205 315 -343 355 -65 19 -92 19 -149 1z"/>
<path d="M985 7196 c-100 -33 -170 -88 -199 -158 -30 -70 -38 -216 -33 -555
l4 -328 77 -650 c42 -357 83 -671 91 -696 27 -82 77 -111 190 -111 115 0 165
30 191 116 8 28 49 346 90 706 73 623 76 668 81 933 10 511 -27 660 -180 728
-42 19 -73 24 -162 26 -72 2 -124 -2 -150 -11z"/>
<path d="M17631 7189 c-83 -27 -171 -110 -189 -179 -24 -89 -36 -442 -24 -672
10 -198 138 -1362 163 -1485 22 -110 81 -155 203 -155 121 0 171 36 196 141
14 62 147 1237 161 1426 13 168 6 544 -11 645 -27 159 -63 221 -158 267 -50
25 -70 28 -167 30 -89 2 -122 -1 -174 -18z"/>
<path d="M16438 6491 c-72 -29 -112 -57 -167 -116 -177 -194 -107 -509 137
-623 50 -24 69 -27 162 -27 96 0 110 3 165 29 304 149 308 570 7 718 -58 29
-77 33 -161 35 -76 3 -106 -1 -143 -16z"/>
<path d="M33104 6492 c-109 -38 -205 -136 -245 -249 -16 -46 -20 -76 -17 -143
5 -104 35 -176 105 -251 56 -61 99 -89 167 -112 51 -18 181 -23 204 -9 9 7 12
92 10 393 l-3 384 -85 2 c-61 2 -100 -2 -136 -15z"/>
<path d="M0 6114 l0 -385 23 6 c54 17 123 63 172 117 157 169 133 440 -50 579
-41 31 -119 69 -141 69 -2 0 -4 -174 -4 -386z"/>
<path d="M4400 5449 c-98 -12 -206 -39 -305 -78 -243 -93 -496 -338 -578 -558
-112 -304 -10 -536 238 -537 110 -1 167 24 250 108 49 49 83 97 114 156 68
132 123 203 191 248 96 64 145 77 295 77 112 0 138 -3 188 -24 119 -47 222
-177 247 -310 45 -239 -43 -402 -360 -671 -184 -156 -259 -243 -320 -372 -61
-128 -75 -288 -35 -384 19 -47 77 -109 125 -134 52 -26 152 -44 217 -37 71 7
157 50 195 98 16 20 47 85 68 144 22 59 52 128 66 154 37 62 121 141 267 253
274 207 409 379 469 596 19 66 22 104 22 267 0 204 -10 263 -68 405 -118 295
-400 505 -776 581 -112 23 -395 33 -510 18z"/>
<path d="M21062 5448 c-258 -32 -478 -137 -655 -311 -172 -169 -267 -365 -267
-547 0 -107 22 -172 77 -231 56 -60 119 -84 219 -83 140 0 257 88 345 258 87
167 149 238 251 288 80 39 152 51 270 46 90 -4 114 -9 171 -35 132 -62 215
-178 238 -333 33 -218 -57 -381 -346 -624 -157 -132 -228 -205 -285 -292 -68
-104 -101 -200 -107 -309 -6 -106 5 -154 50 -221 83 -124 316 -162 450 -73 58
38 87 84 126 199 59 173 108 232 345 412 212 162 327 289 400 441 118 245 111
619 -17 872 -88 177 -244 329 -432 422 -217 108 -551 157 -833 121z"/>
<path d="M9137 5396 c-85 -31 -267 -175 -527 -414 -139 -129 -1024 -1113
-1056 -1174 -28 -54 -30 -85 -9 -133 22 -53 112 -143 155 -156 72 -22 106 -1
678 398 295 207 575 405 621 441 243 189 504 445 559 548 63 119 35 236 -88
367 -101 109 -237 159 -333 123z"/>
<path d="M25804 5396 c-44 -14 -107 -54 -194 -124 -122 -98 -331 -287 -436
-394 -177 -179 -934 -1028 -956 -1072 -31 -61 -21 -121 30 -189 77 -103 152
-126 247 -76 52 27 1050 723 1165 813 236 183 494 433 559 541 66 108 50 220
-47 340 -64 80 -134 131 -211 155 -72 23 -99 24 -157 6z"/>
<path d="M13099 4467 c-105 -30 -209 -121 -257 -225 -36 -80 -42 -203 -13
-285 92 -262 406 -356 622 -185 63 49 124 143 140 213 19 84 8 202 -25 269
-38 78 -112 150 -191 188 -78 36 -198 47 -276 25z"/>
<path d="M29765 4467 c-197 -66 -320 -256 -286 -443 40 -220 246 -372 453
-335 130 23 244 110 302 231 28 59 31 74 31 165 0 93 -2 105 -33 167 -42 85
-129 168 -209 199 -71 27 -200 35 -258 16z"/>
<path d="M1353 3962 c-138 -49 -237 -166 -264 -315 -31 -167 67 -350 229 -425
50 -24 69 -27 162 -27 99 0 110 2 172 33 84 41 167 128 199 209 19 46 23 78
24 153 0 88 -3 101 -32 161 -40 81 -121 160 -200 197 -77 35 -212 42 -290 14z"/>
<path d="M18033 3966 c-104 -34 -205 -123 -249 -221 -46 -100 -42 -238 9 -340
30 -60 120 -148 184 -181 54 -27 66 -29 168 -29 99 0 116 3 168 27 32 15 81
51 113 82 121 122 154 301 82 453 -33 71 -111 148 -185 185 -57 28 -78 33
-157 35 -57 2 -107 -2 -133 -11z"/>
<path d="M4509 2656 c-106 -28 -210 -121 -251 -224 -17 -44 -22 -77 -23 -147
0 -82 3 -96 33 -157 152 -310 603 -275 703 54 86 282 -176 551 -462 474z"/>
<path d="M21150 2648 c-55 -17 -75 -31 -136 -92 -61 -61 -74 -81 -94 -140 -31
-93 -26 -206 13 -287 34 -70 118 -151 194 -187 49 -23 72 -27 148 -27 80 0 97
3 157 32 155 73 241 229 218 394 -34 239 -265 382 -500 307z"/>
<path d="M14434 2212 c-193 -68 -303 -192 -312 -354 -7 -116 45 -234 129 -295
59 -42 56 -52 -34 -83 -75 -26 -185 -27 -260 -1 -83 29 -135 62 -248 162 -149
130 -206 151 -288 109 -73 -37 -104 -104 -81 -175 19 -58 106 -180 170 -237
114 -104 305 -190 482 -218 108 -18 302 -8 403 20 159 43 335 140 442 243 124
119 182 241 183 383 1 333 -284 551 -586 446z"/>
<path d="M31136 2225 c-148 -41 -284 -149 -325 -260 -48 -125 -19 -277 68
-364 25 -26 57 -54 71 -63 l25 -16 -60 -28 c-47 -22 -78 -29 -142 -32 -142 -7
-242 39 -399 181 -92 82 -168 127 -217 127 -39 0 -88 -24 -123 -61 -25 -26
-29 -38 -29 -88 0 -75 42 -148 150 -257 120 -121 283 -202 480 -239 131 -25
319 -17 439 19 429 128 680 437 601 739 -32 125 -117 247 -209 301 -92 54
-223 70 -330 41z"/>
<path d="M9190 1910 c-103 -22 -210 -101 -266 -196 -158 -270 60 -614 375
-592 229 17 404 240 362 464 -26 143 -117 254 -249 304 -59 22 -163 32 -222
20z"/>
<path d="M25862 1909 c-118 -23 -233 -113 -288 -224 -26 -55 -29 -69 -29 -165
0 -99 2 -110 32 -171 40 -80 120 -159 200 -197 51 -24 70 -27 158 -27 93 0
105 2 166 32 80 40 159 120 197 200 24 52 27 69 27 168 0 101 -2 115 -29 166
-56 111 -169 196 -290 218 -67 12 -83 12 -144 0z"/>
<path d="M200 1414 c-54 -11 -146 -35 -172 -45 l-28 -11 0 -358 0 -359 58 30
c125 64 257 62 401 -8 169 -81 271 -257 321 -553 6 -36 13 -75 15 -87 l5 -23
319 0 319 0 -28 53 c-39 72 -57 149 -86 366 -48 360 -123 542 -290 702 -121
116 -315 225 -479 269 -78 21 -293 36 -355 24z"/>
<path d="M16842 1409 c-259 -46 -525 -226 -705 -477 -211 -294 -308 -581 -290
-855 l6 -77 338 0 338 0 -27 58 c-24 52 -27 68 -27 173 l0 116 48 96 c131 264
355 343 613 216 162 -80 269 -277 315 -579 l12 -80 320 0 c175 0 317 3 315 8
-65 126 -76 170 -108 417 -43 337 -116 519 -270 676 -123 126 -300 229 -486
285 -71 21 -115 27 -214 30 -69 1 -149 -1 -178 -7z"/>
<path d="M33246 1319 c-245 -123 -463 -362 -610 -669 -101 -212 -144 -427
-120 -604 l7 -46 334 0 c315 0 335 1 328 18 -51 121 -62 188 -45 282 15 87 77
212 139 282 l51 56 -2 361 -3 360 -79 -40z"/>
<path d="M11885 175 c-89 -26 -258 -95 -350 -143 l-60 -31 403 -1 c221 0 402
3 402 7 0 17 -67 107 -101 137 -72 61 -160 71 -294 31z"/>
<path d="M28615 194 c-73 -19 -201 -66 -330 -123 l-150 -66 208 -3 c115 -1
299 -1 409 0 l201 3 -45 65 c-61 89 -118 124 -207 127 -36 1 -75 -1 -86 -3z"/>
</g>
</svg>
